<?xml version="1.0" encoding="iso-8859-1"?>
<!-- Generator: Adobe Illustrator 19.0.0, SVG Export Plug-In . SVG Version: 6.00 Build 0)  -->
<svg version="1.1" id="Capa_1" xmlns="http://www.w3.org/2000/svg" xmlns:xlink="http://www.w3.org/1999/xlink" x="0px" y="0px"
	 viewBox="0 0 512 512" style="enable-background:new 0 0 512 512;" xml:space="preserve" height="48" width="48">
<g>
	<g>
		<path d="M218.913,292.716c-23.54-23.54-61.843-23.539-85.383,0.001c-23.539,23.54-23.539,61.842,0.001,85.383
			c11.769,11.769,27.23,17.654,42.69,17.654c15.461,0,30.923-5.885,42.691-17.654C242.452,354.56,242.452,316.257,218.913,292.716z
			 M208.197,367.38c-17.63,17.628-46.316,17.629-63.946,0.001c-17.631-17.63-17.631-46.317-0.002-63.946
			c8.817-8.816,20.394-13.222,31.975-13.222c11.577,0,23.159,4.408,31.973,13.221C225.825,321.064,225.825,349.751,208.197,367.38z" fill="red"
			/>
	</g>
</g>
<g>
	<g>
		<path d="M140.8,429.96l-61.991-61.99c-3.327-3.329-7.763-5.162-12.49-5.162c-4.727,0-9.163,1.833-12.49,5.161l-0.297,0.297
			c-3.328,3.329-5.16,7.765-5.16,12.49s1.832,9.162,5.16,12.49l61.991,61.991c3.329,3.328,7.765,5.16,12.49,5.16
			c4.725,0,9.162-1.832,12.49-5.16l0.296-0.297c3.329-3.328,5.162-7.764,5.162-12.49C145.96,437.724,144.127,433.288,140.8,429.96z
			 M130.081,444.223l-0.297,0.297c-0.959,0.961-2.584,0.961-3.543,0l-61.99-61.991c-0.961-0.96-0.961-2.583,0-3.543l0.297-0.298
			c0.628-0.628,1.379-0.721,1.771-0.721s1.144,0.094,1.771,0.723l61.992,61.991c0.627,0.628,0.721,1.379,0.721,1.771
			S130.709,443.595,130.081,444.223z" fill="red"/>
	</g>
</g>
<g>
	<g>
		<path d="M202.614,309.018c-7.05-7.05-16.422-10.931-26.39-10.931c-9.969,0-19.342,3.883-26.389,10.931
			c-7.051,7.05-10.932,16.421-10.932,26.389c0,9.969,3.883,19.342,10.931,26.389c7.05,7.051,16.421,10.932,26.39,10.932
			c9.968,0,19.341-3.882,26.39-10.931C217.164,347.246,217.164,323.569,202.614,309.018z M191.895,351.079
			c-4.187,4.187-9.751,6.493-15.672,6.493s-11.486-2.306-15.673-6.493c-4.186-4.186-6.492-9.752-6.492-15.671
			c0-5.919,2.306-11.485,6.493-15.672c4.186-4.186,9.751-6.492,15.672-6.492s11.485,2.306,15.672,6.493
			C200.537,328.378,200.537,342.438,191.895,351.079z" fill="red"/>
	</g>
</g>
<g>
	<g>
		<path d="M509.78,90.746l-14.145-14.145l6.471-5.386c1.637-1.363,2.626-3.352,2.722-5.48c0.096-2.128-0.705-4.198-2.211-5.706
			l-16.245-16.245c-0.077-0.092-0.148-0.187-0.23-0.276c-0.23-0.251-0.478-0.474-0.733-0.686L451.599,9.012
			c-1.506-1.505-3.563-2.304-5.706-2.211c-2.127,0.097-4.117,1.085-5.48,2.722l-5.385,6.469L421.443,2.406
			c-2.961-2.959-7.759-2.959-10.719,0l-22.162,22.162c-2.96,2.961-2.96,7.759,0,10.719l16.593,16.593l-26.091,31.344
			L249.199,203.298c-8.258-3.625-16.782-6.112-25.411-7.377c-4.143-0.598-7.991,2.258-8.599,6.4c-0.607,4.142,2.258,7.991,6.4,8.599
			c5.138,0.753,10.242,2.03,15.267,3.791l-16.073,14.861c-1.514,1.4-2.392,3.355-2.432,5.417c-0.039,2.06,0.761,4.049,2.218,5.507
			l48.747,48.747c1.423,1.422,3.35,2.219,5.36,2.219c0.034,0,0.069,0,0.104-0.001c2.045-0.027,3.993-0.881,5.4-2.367l15.735-16.617
			c10.878,28.555,5.204,58.607-15.803,80.404c-8.026,8.328-17.428,14.84-27.943,19.351c-13.042,5.595-22.218,17.859-23.947,32.006
			c-2.957,24.208-13.656,46.14-30.943,63.427c-18.97,18.97-42.59,28.99-68.331,28.99c-0.115,0-0.234,0-0.35-0.001
			c-28.761-0.101-56.937-12.668-79.338-35.386C6.089,417.485,3.887,354.25,44.139,314.178c17.27-17.195,39.158-27.836,63.298-30.774
			c14.086-1.716,26.354-10.941,32.018-24.076c4.293-9.958,10.393-18.929,18.133-26.669c10.311-10.312,22.249-17.194,35.481-20.456
			c4.063-1.003,6.546-5.109,5.544-9.174c-1.003-4.063-5.111-6.547-9.174-5.544c-15.954,3.935-30.277,12.162-42.57,24.455
			c-9.102,9.101-16.28,19.661-21.335,31.388c-3.538,8.204-11.175,13.963-19.931,15.029c-27.522,3.35-52.476,15.48-72.161,35.079
			c-22.967,22.866-34.8,52.862-33.32,84.461c1.431,30.553,15.048,60.39,38.341,84.014c25.259,25.616,57.248,39.786,90.078,39.901
			c0.138,0.001,0.271,0.001,0.407,0.001c29.843-0.001,57.172-11.556,79.047-33.428c19.703-19.704,31.899-44.707,35.269-72.307
			c1.076-8.809,6.778-16.44,14.879-19.914c12.382-5.314,23.445-12.972,32.88-22.763c26.9-27.91,32.924-66.944,16.265-102.936
			l121.083-127.872l31.375-26.116l17.151,17.151c1.48,1.479,3.421,2.219,5.36,2.219s3.879-0.74,5.36-2.219l22.162-22.162
			C512.74,98.504,512.74,93.706,509.78,90.746z M462.07,40.92l7.529,7.529l-59.494,54.821l-1.892-1.893L462.07,40.92z
			 M404.639,29.929l11.443-11.443l9.207,9.207l-10.396,12.489L404.639,29.929z M441.399,32.032c0.012-0.014,0.023-0.028,0.035-0.042
			l5.317-6.389l4.581,4.581L397.476,90.64l-2.653-2.653L441.399,32.032z M274.528,273.018l-37.666-37.666L384.367,98.969
			l19.685,19.685c0.079,0.094,0.151,0.191,0.234,0.282c0.232,0.253,0.483,0.479,0.741,0.693l7.573,7.573L274.528,273.018z
			 M423.643,116.807l-2.81-2.81l59.494-54.821l5.701,5.701L423.643,116.807z M482.259,107.548l-10.812-10.812l12.49-10.396
			l9.765,9.766L482.259,107.548z" fill="red"/>
	</g>
</g>
<g>
	<g>
		<path d="M490.373,275.476c-1.778-1.44-4.11-2.001-6.344-1.524L378.31,296.418c-3.5,0.744-6.004,3.835-6.004,7.413v31.575
			c0,4.187,3.392,7.579,7.579,7.579s7.579-3.392,7.579-7.579v-25.438l90.561-19.244v76.711c-6.261-3.778-14.037-6.02-22.454-6.02
			c-20.653,0-37.456,13.495-37.456,30.082c0,16.587,16.803,30.082,37.456,30.082c19.475,0,35.52-11.999,37.289-27.275
			c0.208-0.693,0.323-1.427,0.323-2.188V281.366C493.183,279.08,492.15,276.915,490.373,275.476z M455.571,406.422
			c-12.087,0-22.298-6.834-22.298-14.924s10.211-14.924,22.298-14.924c12.087,0,22.299,6.834,22.299,14.924
			S467.658,406.422,455.571,406.422z" fill="red"/>
	</g>
</g>
<g>
	<g>
		<path d="M387.463,365.15c0-4.186-3.392-7.579-7.579-7.579c-4.187,0-7.579,3.392-7.579,7.579v35.031
			c-6.234-3.722-13.951-5.928-22.298-5.928c-20.653,0-37.457,13.495-37.457,30.082c0,16.587,16.803,30.083,37.457,30.083
			s37.456-13.495,37.456-30.083c0-0.019-0.002-0.038-0.002-0.059c0-0.012,0.002-0.024,0.002-0.036V365.15z M350.007,439.258
			c-12.087,0-22.299-6.834-22.299-14.925c0-8.089,10.212-14.924,22.299-14.924s22.298,6.834,22.298,14.924
			C372.305,432.425,362.094,439.258,350.007,439.258z" fill="red"/>
	</g>
</g>
<g>
	<g>
		<path d="M211.037,14.895c-1.715-1.441-3.981-2.051-6.185-1.661l-47.883,8.403c-4.122,0.724-6.879,4.653-6.154,8.776
			c0.724,4.123,4.65,6.878,8.776,6.154l38.993-6.842v77.046c-6.261-3.778-14.036-6.02-22.453-6.02
			c-20.654,0-37.457,13.495-37.457,30.082s16.803,30.081,37.457,30.081c19.474,0,35.519-11.999,37.288-27.275
			c0.208-0.693,0.323-1.427,0.323-2.188V20.698C213.743,18.459,212.753,16.335,211.037,14.895z M176.131,145.755
			c-12.087,0-22.299-6.834-22.299-14.924s10.212-14.924,22.299-14.924s22.298,6.834,22.298,14.924S188.218,145.755,176.131,145.755z
			" fill="red"/>
	</g>
</g>
<g>
	<g>
		<path d="M128.069,37.294c-0.869-4.095-4.895-6.712-8.989-5.838l-20.211,4.295c-3.5,0.744-6.004,3.835-6.004,7.413v96.349
			c-6.234-3.722-13.951-5.928-22.298-5.928c-20.654,0-37.457,13.495-37.457,30.082s16.802,30.08,37.457,30.08
			c20.654,0,37.456-13.495,37.456-30.082c0-0.019-0.002-0.038-0.002-0.059c0-0.012,0.002-0.024,0.002-0.036V49.302l14.207-3.018
			C126.326,45.414,128.94,41.389,128.069,37.294z M70.568,178.591c-12.087,0-22.299-6.834-22.299-14.924
			s10.212-14.924,22.299-14.924c12.087,0,22.298,6.834,22.298,14.924S82.655,178.591,70.568,178.591z" fill="red"/>
	</g>
</g>
<g>
</g>
<g>
</g>
<g>
</g>
<g>
</g>
<g>
</g>
<g>
</g>
<g>
</g>
<g>
</g>
<g>
</g>
<g>
</g>
<g>
</g>
<g>
</g>
<g>
</g>
<g>
</g>
<g>
</g>
</svg>
